<?xml version="1.0" standalone="no"?>
<!DOCTYPE svg PUBLIC "-//W3C//DTD SVG 20010904//EN"
 "http://www.w3.org/TR/2001/REC-SVG-20010904/DTD/svg10.dtd">
<svg version="1.0" xmlns="http://www.w3.org/2000/svg"
 width="505.000000pt" height="505.000000pt" viewBox="0 0 505.000000 505.000000"
 preserveAspectRatio="xMidYMid meet">
<metadata>
Created by potrace 1.11, written by Peter Selinger 2001-2013
</metadata>
<g transform="translate(0.000000,505.000000) scale(0.100000,-0.100000)"
fill="#000000" stroke="none">
<path d="M2712 5015 c-6 -11 -12 -15 -12 -10 0 6 -9 11 -19 11 -11 0 -17 -4
-15 -8 8 -13 -11 -9 -25 5 -10 10 -11 9 -5 -6 4 -13 2 -16 -9 -11 -9 3 -21 -3
-29 -15 -8 -12 -18 -18 -21 -15 -4 4 -5 -3 -2 -15 3 -18 1 -20 -15 -11 -24 13
-33 13 -25 0 10 -16 0 -11 -30 14 l-29 25 -23 -25 c-13 -14 -28 -22 -35 -18
-7 4 -8 3 -4 -4 4 -7 2 -12 -4 -12 -6 0 -9 -4 -6 -9 4 -5 -5 -8 -19 -6 -14 1
-25 -3 -25 -9 0 -6 -5 -4 -10 4 -9 13 -10 13 -10 0 0 -13 -1 -13 -10 0 -5 8
-10 11 -10 5 0 -10 -89 -11 -115 -1 -8 3 -15 1 -15 -5 0 -6 -7 -8 -15 -5 -9 3
-18 -1 -22 -9 -4 -12 -8 -13 -20 -4 -8 7 -13 8 -11 3 2 -5 -1 -10 -6 -11 -5
-1 -12 -7 -17 -14 -4 -8 -22 -14 -39 -15 -17 -1 -36 -6 -43 -13 -6 -6 -16 -11
-21 -11 -6 0 -4 5 4 10 12 8 10 10 -10 7 -14 -1 -31 -6 -39 -11 -10 -6 -12 -5
-7 2 6 11 -20 18 -48 13 -5 -1 -6 5 -2 14 5 13 2 13 -18 -2 -16 -12 -20 -20
-12 -25 7 -5 4 -8 -7 -8 -10 0 -15 -4 -12 -10 3 -5 1 -10 -5 -10 -6 0 -14 -8
-17 -17 -4 -10 -14 -24 -22 -31 -13 -11 -13 -12 -1 -6 9 4 7 -2 -5 -13 -15
-16 -23 -18 -34 -9 -8 6 -12 7 -9 1 3 -5 0 -16 -8 -23 -8 -7 -14 -9 -14 -5 0
4 -5 1 -10 -7 -7 -11 -10 -12 -10 -2 0 10 -4 9 -16 -3 -9 -9 -23 -14 -30 -11
-7 3 -18 -3 -23 -12 -8 -14 -11 -14 -11 -2 0 12 -3 11 -11 -3 -8 -14 -14 -15
-24 -7 -9 8 -15 8 -20 0 -3 -5 -11 -10 -16 -10 -6 0 -7 5 -3 11 3 6 -5 4 -18
-5 -14 -9 -28 -13 -31 -10 -4 4 -13 1 -21 -5 -8 -7 -20 -10 -26 -6 -5 3 -10 1
-10 -6 0 -8 -4 -8 -15 1 -13 11 -14 10 -8 -6 6 -16 4 -17 -8 -7 -12 10 -18 10
-27 1 -7 -7 -12 -8 -12 -2 0 5 -11 10 -25 10 -14 1 -25 -2 -25 -7 0 -5 6 -9
13 -9 8 0 7 -4 -3 -10 -12 -8 -12 -10 5 -10 11 0 16 -4 10 -8 -5 -4 -10 -16
-10 -27 0 -11 5 -23 10 -27 6 -5 4 -8 -5 -8 -13 0 -13 -1 0 -10 13 -8 12 -11
-5 -25 -11 -9 -13 -14 -5 -10 10 4 9 2 -2 -8 -10 -8 -15 -17 -11 -21 4 -4 -3
-9 -16 -13 -13 -3 -20 -11 -17 -19 3 -7 -4 -16 -15 -19 -20 -7 -20 -7 -2 -28
10 -11 13 -17 7 -14 -7 4 -12 -3 -12 -18 1 -16 5 -22 12 -18 7 4 6 1 -1 -9 -7
-8 -10 -18 -6 -21 3 -4 1 -7 -6 -7 -7 0 -9 -4 -6 -10 3 -5 1 -10 -5 -10 -6 0
-8 -4 -5 -10 3 -5 0 -10 -7 -10 -7 0 -29 -11 -49 -24 -27 -19 -39 -22 -54 -14
-14 9 -17 8 -13 -4 5 -11 -3 -14 -36 -14 -22 1 -44 6 -48 11 -5 6 -8 5 -8 -3
0 -9 -5 -10 -19 -2 -11 5 -22 10 -24 10 -8 0 -2 -29 8 -37 4 -4 5 -1 1 7 -4 8
-1 7 8 -4 8 -10 19 -16 23 -13 5 3 9 -3 9 -13 0 -10 -6 -16 -13 -13 -7 3 -13
1 -13 -4 0 -5 12 -10 27 -11 15 -1 30 -8 35 -15 5 -7 8 -8 8 -1 0 6 7 11 15
11 8 0 12 -4 9 -9 -8 -13 10 -10 25 5 11 10 13 10 7 0 -5 -9 0 -13 14 -13 12
0 19 -4 16 -9 -4 -5 -1 -11 5 -13 9 -3 9 -10 -1 -27 -6 -13 -8 -21 -2 -17 5 3
12 -1 16 -9 3 -8 0 -17 -6 -21 -7 -5 -8 -2 -3 6 5 9 4 11 -4 6 -9 -6 -9 -11 0
-22 6 -8 9 -23 6 -33 -3 -11 0 -22 7 -25 8 -3 8 -5 0 -5 -8 -1 -10 -14 -7 -37
3 -21 1 -34 -4 -31 -5 4 -10 0 -10 -8 0 -8 5 -11 11 -8 6 3 5 0 -1 -8 -7 -7
-13 -26 -13 -41 0 -16 -6 -28 -12 -28 -9 0 -8 -4 2 -10 13 -9 13 -10 0 -10
-12 0 -13 -2 -1 -9 9 -6 10 -10 2 -12 -7 -3 -13 -20 -13 -39 0 -19 -4 -40 -9
-45 -4 -6 -6 -20 -5 -30 2 -11 -3 -31 -11 -44 -8 -13 -11 -21 -5 -17 6 3 9 -4
8 -18 0 -15 -5 -21 -11 -16 -6 5 -10 -5 -9 -28 1 -21 -4 -40 -10 -44 -8 -6 -7
-8 2 -8 6 0 12 -5 12 -11 0 -5 -4 -7 -10 -4 -6 3 -7 -1 -4 -9 4 -9 1 -16 -6
-16 -10 0 -10 -3 0 -15 9 -10 9 -15 1 -15 -6 0 -10 -6 -9 -12 2 -7 -4 -12 -12
-10 -11 2 -10 -1 3 -12 11 -9 14 -15 7 -18 -7 -2 -13 -18 -15 -36 -1 -18 -5
-35 -9 -39 -11 -11 -6 -24 7 -17 9 6 9 5 0 -8 -7 -8 -10 -18 -6 -22 4 -4 1
-11 -7 -16 -10 -7 -11 -10 -2 -10 6 0 12 -8 12 -17 0 -15 -2 -16 -10 -3 -5 8
-10 10 -10 4 0 -5 5 -15 12 -22 9 -9 9 -12 -2 -12 -10 0 -11 -3 -3 -11 6 -6 8
-23 3 -45 -5 -23 -4 -34 4 -34 7 0 7 -3 1 -8 -17 -12 -12 -82 5 -82 13 0 13
-1 0 -10 -8 -5 -10 -10 -5 -10 6 0 3 -5 -5 -10 -13 -8 -12 -10 3 -10 14 0 16
-4 7 -19 -7 -14 -6 -21 3 -24 9 -4 9 -6 -1 -6 -8 -1 -10 -9 -6 -27 4 -17 3
-25 -3 -21 -8 5 -10 -24 -3 -43 4 -11 -2 -65 -9 -75 -8 -13 -7 -37 2 -52 5 -7
4 -13 -1 -13 -12 0 -11 -34 2 -42 6 -5 1 -8 -11 -8 -15 0 -23 -6 -23 -17 0 -9
-3 -13 -7 -10 -8 8 -33 -39 -33 -62 0 -9 -6 -23 -12 -30 -11 -11 -10 -12 2 -6
13 8 13 7 1 -8 -11 -14 -11 -17 0 -17 12 0 12 -2 0 -9 -9 -6 -10 -11 -2 -15 6
-4 9 -12 6 -17 -12 -19 -13 -49 -2 -49 7 0 6 -4 -3 -11 -12 -9 -13 -12 -1 -16
11 -5 11 -7 0 -14 -12 -7 -12 -9 0 -9 11 0 11 -3 0 -17 -12 -14 -12 -15 0 -9
10 7 12 3 6 -14 -5 -15 -4 -20 4 -16 7 5 9 1 5 -8 -4 -10 -1 -16 7 -16 11 0
11 -3 -1 -10 -10 -6 -11 -10 -2 -10 6 0 12 -9 12 -19 0 -11 4 -21 9 -23 5 -1
11 -10 13 -18 2 -8 8 -20 15 -28 7 -7 9 -20 6 -29 -5 -12 -3 -14 7 -8 8 5 11
3 8 -6 -3 -8 2 -20 11 -27 9 -8 10 -11 3 -7 -6 3 -12 1 -12 -4 0 -6 5 -11 11
-11 5 0 8 -4 5 -9 -3 -5 1 -12 10 -15 8 -3 12 -11 9 -16 -4 -6 -1 -18 7 -27 9
-12 9 -15 1 -9 -9 5 -11 2 -7 -8 3 -9 11 -13 16 -10 6 4 5 -2 -1 -14 -7 -14
-8 -23 -1 -27 7 -4 6 -13 -1 -27 -8 -15 -8 -19 1 -13 8 5 11 0 8 -17 -1 -14 3
-32 10 -41 9 -11 10 -17 2 -22 -8 -5 -5 -12 7 -22 10 -8 12 -12 6 -8 -9 4 -11
1 -7 -9 3 -9 11 -16 17 -16 8 0 7 -4 0 -11 -9 -9 -5 -19 17 -39 16 -15 26 -31
22 -35 -4 -5 -1 -5 6 -1 7 4 15 1 18 -9 6 -13 8 -14 15 -3 7 10 9 9 9 -5 0
-10 4 -15 10 -12 5 3 10 0 10 -7 0 -10 2 -11 8 0 6 9 12 6 20 -13 9 -19 9 -25
-1 -25 -9 0 -9 -2 0 -8 7 -4 14 -32 15 -62 1 -30 7 -58 13 -62 6 -5 5 -8 -3
-8 -10 0 -9 -5 3 -17 16 -16 16 -18 -1 -31 -18 -14 -18 -14 5 -9 22 5 23 5 8
-10 -14 -15 -14 -18 1 -42 9 -14 12 -22 5 -18 -7 5 -9 1 -6 -13 3 -11 8 -18
12 -16 3 2 6 -16 5 -39 0 -24 3 -42 7 -40 4 3 10 -2 13 -11 3 -8 2 -12 -4 -9
-6 3 -10 2 -10 -4 0 -5 5 -11 12 -13 10 -4 15 -18 20 -60 1 -9 5 -15 8 -13 3
1 11 -3 18 -11 10 -11 10 -14 0 -14 -7 -1 -2 -7 12 -15 14 -8 19 -14 11 -15
-8 0 -2 -12 16 -29 22 -21 28 -32 20 -40 -11 -11 3 -16 27 -12 5 1 3 -6 -5
-15 -9 -12 -9 -15 -1 -10 11 6 17 -11 13 -36 0 -5 5 -7 12 -5 6 1 11 -4 10
-10 -2 -7 2 -13 8 -13 5 0 7 -5 3 -12 -5 -7 -2 -9 8 -6 10 4 14 0 14 -16 -1
-11 4 -20 10 -19 6 1 10 -9 8 -23 -1 -14 2 -22 8 -18 5 3 12 -3 15 -15 3 -12
9 -21 13 -21 4 0 11 -7 14 -16 6 -15 4 -15 -11 -3 -10 8 -6 0 7 -17 14 -17 30
-29 35 -26 6 3 7 2 3 -3 -4 -4 -2 -15 5 -23 10 -13 9 -15 -3 -8 -8 4 -6 0 4
-8 11 -9 16 -16 12 -16 -4 0 1 -13 10 -29 10 -17 22 -27 27 -24 4 3 8 -1 6 -8
-3 -29 1 -40 14 -33 8 5 8 2 -2 -9 -9 -11 -10 -17 -2 -17 6 0 11 -9 11 -21 0
-11 4 -17 10 -14 5 3 10 -1 10 -9 0 -9 5 -16 10 -16 6 0 10 -7 10 -16 0 -8 5
-12 10 -9 6 3 10 -3 10 -14 0 -19 11 -26 33 -22 5 1 5 -3 2 -9 -4 -6 16 -33
44 -60 28 -27 51 -46 51 -43 0 3 9 -4 20 -17 11 -13 20 -19 20 -14 0 5 5 1 11
-9 6 -9 14 -15 20 -12 5 4 16 -1 25 -9 8 -9 24 -16 34 -16 10 0 20 -6 23 -14
4 -9 14 -12 26 -9 12 3 21 1 21 -6 0 -6 5 -11 11 -11 5 0 7 6 3 12 -4 7 5 2
20 -12 33 -29 28 -29 52 -10 10 8 16 10 11 5 -11 -13 55 -34 71 -22 8 6 12 6
12 -1 0 -6 7 -9 15 -6 8 4 15 2 15 -2 0 -5 35 -8 77 -7 49 2 82 -2 92 -10 10
-8 12 -8 8 -1 -4 7 0 14 8 18 8 3 15 2 15 -3 0 -4 6 -8 14 -8 8 0 15 3 14 6
-2 19 4 24 12 11 6 -10 10 -11 10 -2 0 6 9 12 21 12 11 0 17 4 14 10 -3 5 3
11 14 11 40 3 46 5 43 17 -1 8 5 12 15 10 11 -2 17 2 15 11 -2 11 0 12 11 2
12 -9 16 -8 21 4 3 9 10 13 16 10 5 -3 10 -1 10 5 0 6 4 9 9 6 5 -3 14 1 21 9
18 22 71 46 84 38 6 -3 8 -3 4 2 -5 5 1 15 12 22 11 8 18 19 14 24 -3 5 -2 8
3 7 4 -2 18 7 31 20 12 12 27 20 32 17 5 -3 12 0 16 6 4 8 3 9 -4 5 -7 -4 -12
-2 -12 3 0 6 6 11 13 11 7 0 23 13 37 29 13 17 27 28 31 25 4 -2 10 0 14 6 3
5 0 10 -7 11 -7 0 -5 4 5 8 10 4 18 10 18 14 -1 11 43 52 52 49 5 -1 6 2 2 8
-3 5 -1 10 6 10 7 0 10 3 6 6 -8 8 16 33 26 27 4 -2 7 1 7 7 0 6 4 8 10 5 5
-3 7 0 4 8 -3 8 3 20 12 28 16 12 17 12 9 -1 -5 -9 -5 -12 1 -7 5 5 9 14 9 20
1 7 7 11 14 9 7 -1 10 2 6 8 -3 5 1 13 10 16 9 4 14 13 11 20 -3 8 -2 13 2 13
21 -3 31 3 26 15 -3 9 3 17 16 21 12 4 19 9 16 12 -3 4 2 12 12 20 11 10 12
12 2 8 -8 -4 -4 3 10 14 14 11 21 21 16 21 -6 0 -2 6 9 14 12 8 16 20 13 34
-4 16 -2 19 10 15 9 -4 13 -2 9 4 -4 6 -1 14 5 16 10 4 10 6 0 6 -10 1 -10 5
2 17 9 8 16 24 16 35 0 10 4 19 9 19 8 0 22 32 25 55 1 6 8 16 16 23 8 8 9 11
3 7 -7 -3 -13 -1 -13 4 0 6 3 11 8 11 10 0 32 51 26 61 -3 5 0 9 6 9 6 0 8 5
5 10 -3 5 -1 10 5 10 6 0 9 4 5 9 -3 5 -1 12 4 16 5 3 8 14 6 25 -3 13 0 18 7
14 7 -5 9 0 6 14 -4 12 -3 20 2 17 4 -3 11 2 14 11 4 10 2 13 -7 8 -8 -5 -7
-2 2 9 7 9 10 17 5 17 -5 0 -3 4 5 9 12 8 12 12 2 24 -10 13 -9 17 6 26 11 6
13 11 5 11 -7 0 -10 5 -7 10 12 20 15 71 3 64 -7 -5 -8 -2 -2 7 4 8 9 25 10
39 2 53 4 61 13 56 4 -3 13 6 20 20 6 14 7 23 1 19 -6 -3 -7 1 -4 9 3 9 10 13
15 10 5 -3 9 2 9 11 0 9 5 13 11 9 8 -4 8 -1 1 12 -8 16 -6 19 13 19 13 0 23
-2 22 -5 -1 -3 3 -7 8 -8 6 -2 18 -8 29 -14 13 -7 16 -7 12 1 -4 6 0 11 8 11
9 0 16 5 16 11 0 5 5 7 12 3 8 -5 9 -1 4 12 -6 15 -5 16 5 7 10 -10 16 -8 31
9 10 12 18 27 18 34 0 7 7 17 16 22 9 5 17 21 17 35 1 15 7 29 13 31 7 2 9 16
7 30 -3 14 -1 26 4 26 6 0 9 11 8 25 -2 14 1 25 7 25 6 0 8 9 5 19 -3 11 1 22
9 25 7 3 11 12 8 21 -3 8 -1 15 6 15 6 0 9 4 5 9 -3 5 -1 12 5 16 6 4 8 10 5
15 -3 5 0 14 7 22 7 7 20 22 28 32 13 18 13 19 0 12 -8 -4 -7 -1 4 8 10 8 15
20 10 27 -4 7 -3 10 3 6 5 -4 16 6 24 21 8 15 19 30 26 35 7 4 10 14 7 21 -3
8 0 17 5 21 6 3 8 11 5 17 -5 7 -2 8 5 4 8 -5 14 0 18 13 3 12 10 21 15 21 6
0 4 8 -3 17 -8 9 -9 14 -4 11 6 -3 16 0 23 8 10 11 10 14 0 14 -10 0 -10 2 1
9 7 5 14 25 14 45 1 20 5 36 10 36 4 0 5 5 1 12 -4 6 -8 27 -10 46 -1 21 -10
39 -23 49 -17 11 -19 18 -11 28 10 11 8 13 -9 10 -12 -2 -19 0 -16 5 3 4 -1
15 -9 23 -8 8 -12 18 -8 21 3 4 -1 4 -11 0 -11 -4 -17 -1 -17 7 0 11 -3 11
-10 -1 -8 -13 -10 -13 -10 1 0 9 -7 16 -15 16 -8 0 -15 -5 -15 -10 0 -5 -7 -4
-15 3 -10 9 -15 9 -15 1 0 -6 -5 -11 -11 -11 -5 0 -7 6 -3 13 5 8 2 8 -9 -2
-14 -11 -17 -11 -17 0 0 10 -3 10 -8 3 -8 -13 -72 -24 -72 -12 0 4 1 10 3 11
1 2 -5 12 -13 22 -9 11 -10 16 -2 11 6 -4 12 -2 12 3 0 6 -5 11 -12 11 -9 0
-9 3 0 12 16 16 15 31 0 22 -10 -5 -10 -4 -1 6 6 7 9 19 6 28 -5 11 -2 13 6 7
10 -6 11 -3 2 14 -9 16 -9 21 1 21 9 0 9 3 -2 10 -8 5 -10 10 -5 10 6 0 10 17
9 37 0 21 5 41 10 45 7 5 6 8 -3 8 -11 0 -11 3 0 16 10 13 10 17 0 24 -10 6
-10 9 -1 12 8 2 12 26 13 68 0 36 4 71 10 78 6 8 6 12 -1 12 -6 0 -9 7 -6 15
4 8 11 12 16 9 6 -4 5 2 -1 14 -8 15 -8 22 2 25 9 4 8 6 -2 6 -11 1 -10 6 3
26 15 22 15 25 -2 34 -16 10 -15 10 3 11 12 1 15 4 7 7 -10 4 -10 8 0 21 10
12 10 16 1 19 -9 3 -7 10 5 23 14 15 17 37 16 119 0 56 -4 104 -7 107 -4 4 -2
15 4 25 7 13 6 19 -1 19 -7 0 -8 6 0 19 7 13 7 22 0 26 -5 3 -10 22 -10 41 0
26 -3 33 -12 28 -10 -6 -10 -5 -1 7 8 10 9 19 3 25 -5 5 -10 28 -12 51 -2 22
-6 39 -10 36 -5 -2 -8 7 -8 21 0 14 -6 26 -12 26 -9 0 -8 4 2 10 10 6 11 10 3
10 -7 0 -13 11 -13 25 0 14 -5 25 -11 25 -5 0 -8 4 -4 9 3 6 -3 14 -12 20 -14
8 -15 10 -3 11 13 0 13 1 0 10 -8 5 -11 10 -6 10 5 0 3 7 -4 15 -7 8 -9 15 -4
15 5 0 4 4 -3 8 -6 4 -13 14 -15 22 -2 8 -9 21 -16 29 -7 7 -11 20 -8 28 3 8
2 12 -3 9 -5 -3 -15 2 -22 11 -12 14 -12 16 1 9 8 -4 5 1 -7 12 -12 11 -19 22
-16 26 3 3 -3 13 -14 23 -10 10 -12 14 -4 8 12 -9 12 -7 0 12 -7 12 -15 20
-18 18 -9 -10 -39 37 -36 56 2 10 0 19 -6 19 -13 0 -7 23 11 37 13 11 12 12
-4 7 -16 -6 -17 -4 -7 14 11 21 6 27 -21 23 -5 0 -8 8 -8 19 0 11 -5 20 -11
20 -5 0 -7 5 -4 10 3 6 0 10 -8 10 -7 0 -20 12 -27 26 -8 14 -22 30 -32 35
-10 5 -18 16 -18 24 0 7 -9 17 -21 20 -12 4 -18 12 -15 21 3 8 0 13 -7 11 -7
-1 -11 3 -10 10 2 8 -4 10 -14 6 -13 -5 -15 -2 -10 11 4 10 3 15 -3 11 -6 -3
-13 1 -16 9 -3 9 -16 16 -28 16 -14 0 -17 3 -8 8 9 6 6 12 -12 20 -19 8 -23
16 -19 33 4 14 2 20 -5 15 -6 -3 -16 0 -24 7 -7 7 -23 12 -36 11 -12 -1 -25 3
-28 7 -8 14 -26 10 -19 -3 4 -7 -1 -4 -9 6 -9 11 -16 28 -16 39 0 10 -4 16 -8
13 -11 -7 -9 56 3 74 7 12 5 12 -16 -1 -31 -21 -68 -7 -48 17 9 11 9 14 -1 14
-7 0 -10 8 -7 19 3 12 -3 27 -14 37 -10 9 -16 22 -12 28 3 6 3 8 -1 4 -9 -7
-56 33 -50 43 2 3 -17 5 -42 5 -25 -1 -48 3 -51 7 -3 4 -11 2 -19 -4 -9 -7
-14 -8 -12 -3 2 5 1 9 -2 10 -3 0 -16 6 -29 13 -13 7 -21 8 -17 3 3 -6 2 -13
-4 -17 -5 -3 -10 -1 -10 6 0 7 -3 9 -7 6 -3 -4 -12 -2 -20 4 -10 9 -13 8 -13
-1 0 -10 -3 -10 -15 0 -11 9 -15 9 -15 1 0 -9 -5 -9 -21 0 -15 8 -19 8 -15 0
4 -6 3 -11 -3 -11 -5 0 -11 6 -13 12 -3 8 -9 5 -16 -7z"/>
<path d="M3135 4830 c3 -5 8 -10 11 -10 2 0 4 5 4 10 0 6 -5 10 -11 10 -5 0
-7 -4 -4 -10z"/>
<path d="M955 4190 c3 -5 8 -10 11 -10 2 0 4 5 4 10 0 6 -5 10 -11 10 -5 0 -7
-4 -4 -10z"/>
</g>
</svg>
