<?xml version="1.0" standalone="no"?>
<!DOCTYPE svg PUBLIC "-//W3C//DTD SVG 20010904//EN"
 "http://www.w3.org/TR/2001/REC-SVG-20010904/DTD/svg10.dtd">
<svg version="1.0" xmlns="http://www.w3.org/2000/svg"
 width="229.000000pt" height="229.000000pt" viewBox="0 0 229.000000 229.000000"
 preserveAspectRatio="xMidYMid meet">
<metadata>
Created by potrace 1.11, written by Peter Selinger 2001-2013
</metadata>
<g transform="translate(0.000000,229.000000) scale(0.100000,-0.100000)"
fill="#000000" stroke="none">
<path d="M1230 2239 c-17 -4 -34 -9 -37 -13 -3 -3 -13 0 -21 7 -13 10 -14 9
-7 -2 6 -11 2 -13 -19 -9 -14 3 -26 1 -26 -4 0 -5 -9 -4 -20 2 -15 8 -18 8
-14 -3 5 -14 3 -15 -64 -18 -23 -1 -45 -5 -48 -10 -3 -5 -14 -4 -25 1 -15 9
-21 7 -25 -5 -5 -12 -9 -13 -20 -4 -9 7 -14 8 -14 1 0 -5 -7 -13 -16 -16 -9
-4 -13 -2 -8 5 3 6 -6 3 -22 -7 -41 -27 -54 -40 -46 -50 4 -5 -2 -2 -12 6 -11
8 -17 11 -14 5 3 -5 0 -16 -8 -23 -8 -7 -14 -10 -14 -6 0 3 -6 1 -13 -5 -8 -6
-17 -8 -20 -4 -4 3 -7 1 -7 -5 0 -7 -3 -11 -7 -11 -19 3 -34 -2 -29 -9 3 -4
-8 -7 -25 -6 -16 1 -26 -2 -23 -7 3 -6 0 -16 -6 -24 -6 -8 -8 -20 -4 -26 5 -9
2 -10 -10 -6 -14 5 -15 3 -6 -13 8 -16 8 -18 -4 -14 -11 4 -14 0 -11 -15 2
-12 -1 -20 -8 -18 -7 1 -11 -4 -9 -10 1 -7 -3 -13 -9 -13 -5 0 -7 -4 -4 -10 3
-5 0 -10 -7 -10 -7 0 -19 -9 -26 -21 -8 -12 -9 -18 -3 -14 13 8 13 9 15 -87 1
-43 -2 -78 -7 -78 -4 0 -5 -4 -2 -10 3 -5 1 -19 -5 -30 -8 -14 -8 -20 0 -20 6
0 8 -5 3 -12 -4 -7 -9 -22 -10 -33 -2 -11 -6 -27 -10 -35 -8 -20 -12 -39 -15
-72 -1 -16 -6 -28 -10 -28 -7 0 -2 -39 6 -48 3 -2 1 -13 -5 -23 -7 -13 -6 -19
1 -19 8 0 8 -6 0 -20 -8 -15 -8 -20 1 -20 8 0 8 -4 -1 -15 -7 -8 -8 -15 -3
-15 11 0 11 -45 1 -55 -3 -3 -1 -19 5 -35 10 -26 8 -33 -13 -56 -14 -15 -18
-24 -10 -20 12 6 12 5 -1 -6 -9 -7 -16 -20 -17 -28 0 -8 -3 -31 -5 -50 -2 -19
1 -41 7 -49 9 -12 8 -13 -4 -6 -9 5 -8 0 4 -13 11 -12 16 -22 12 -22 -3 0 5
-22 20 -50 14 -27 28 -64 31 -82 3 -18 8 -35 12 -38 4 -3 8 -16 9 -30 0 -14 6
-26 12 -28 5 -2 10 -11 10 -20 0 -9 14 -46 30 -80 17 -35 30 -73 30 -84 0 -25
26 -83 55 -123 12 -17 34 -62 48 -101 14 -39 39 -86 56 -105 18 -19 43 -46 56
-61 14 -15 30 -39 37 -53 8 -18 25 -29 62 -40 116 -33 130 -34 191 -17 22 6
61 17 86 23 52 14 75 31 102 72 10 15 35 35 55 45 20 9 42 24 48 32 7 8 26 31
43 50 40 44 59 79 78 144 8 28 24 63 34 78 11 14 19 35 19 46 0 34 22 86 48
114 14 16 22 28 18 28 -4 0 13 19 38 41 41 38 71 96 80 155 1 8 10 24 19 34 9
11 14 20 11 20 -3 0 3 14 13 30 9 17 21 30 25 30 4 0 8 9 8 20 0 11 5 20 11
20 6 0 8 8 4 19 -3 11 -1 22 4 25 15 10 -7 63 -34 80 -14 9 -38 16 -55 16 -29
0 -30 1 -24 36 3 20 8 46 11 58 2 11 4 27 4 34 -1 6 -1 18 -2 25 0 6 2 22 5
35 3 12 0 22 -6 22 -6 0 -7 5 -2 13 8 11 10 33 4 47 -2 7 -10 91 -13 165 -2
33 -9 80 -16 105 -15 55 -62 163 -74 171 -5 3 -8 8 -7 10 11 20 -99 177 -114
162 -3 -3 -6 1 -6 11 0 9 -4 15 -8 12 -5 -3 -15 4 -22 15 -8 10 -20 19 -28 19
-7 0 -11 4 -8 9 3 5 -3 11 -14 14 -11 3 -20 12 -20 21 0 9 -7 16 -16 16 -8 0
-13 4 -10 8 6 10 -45 58 -56 54 -5 -1 -8 3 -8 9 0 6 -7 9 -15 5 -8 -3 -15 -2
-15 2 0 9 -39 9 -80 1z"/>
<path d="M420 775 c0 -8 7 -15 15 -15 8 0 15 4 15 9 0 5 -7 11 -15 15 -9 3
-15 0 -15 -9z"/>
</g>
</svg>
